<svg xmlns="http://www.w3.org/2000/svg" xmlns:xlink="http://www.w3.org/1999/xlink" width="0" height="0" style="display:none;"><symbol viewBox="0 0 24 24" id="delete-bin-fill"><path d="M17 6H22V8H20V21C20 21.5523 19.5523 22 19 22H5C4.44772 22 4 21.5523 4 21V8H2V6H7V3C7 2.44772 7.44772 2 8 2H16C16.5523 2 17 2.44772 17 3V6ZM9 11V17H11V11H9ZM13 11V17H15V11H13ZM9 4V6H15V4H9Z"></path></symbol><symbol viewBox="0 0 24 24" id="pencil-fill"><path d="M12.8995 6.85453L17.1421 11.0972L7.24264 20.9967H3V16.754L12.8995 6.85453ZM14.3137 5.44032L16.435 3.319C16.8256 2.92848 17.4587 2.92848 17.8492 3.319L20.6777 6.14743C21.0682 6.53795 21.0682 7.17112 20.6777 7.56164L18.5563 9.68296L14.3137 5.44032Z"></path></symbol><symbol viewBox="0 0 24 24" id="check-line"><path d="M9.9997 15.1709L19.1921 5.97852L20.6063 7.39273L9.9997 17.9993L3.63574 11.6354L5.04996 10.2212L9.9997 15.1709Z"></path></symbol><symbol viewBox="0 0 24 24" id="arrow-go-back-fill"><path d="M8 7V11L2 6L8 1V5H13C17.4183 5 21 8.58172 21 13C21 17.4183 17.4183 21 13 21H4V19H13C16.3137 19 19 16.3137 19 13C19 9.68629 16.3137 7 13 7H8Z"></path></symbol></svg>